<svg width="298" height="200" viewBox="0 0 298 200" fill="none" xmlns="http://www.w3.org/2000/svg">
<path fill-rule="evenodd" clip-rule="evenodd" d="M0 75.5556V124.444H4.44444V128.889H66.6667V124.444H71.1111V75.5556H66.6667V71.1111H4.44444V75.5556H0ZM4.44444 75.5556V115.556H8.88889V120H62.2222V115.556H66.6667V75.5556H4.44444ZM35.5556 84.4444H40V88.8889H35.5556V84.4444ZM35.5556 88.8889H31.1111V102.222H35.5556V106.667H44.4444V88.8889H40V97.7778H35.5556V88.8889Z" fill="#A0A0A0"/>
<path fill-rule="evenodd" clip-rule="evenodd" d="M84.4445 75.5556V124.444H88.8889V128.889H151.111V124.444H155.556V75.5556H151.111V71.1111H88.8889V75.5556H84.4445ZM88.8889 75.5556L88.8889 115.556H93.3333V120H146.667V115.556H151.111V75.5556H88.8889ZM115.556 106.667V84.4444H124.444V88.8889H120V102.222H124.444V106.667H115.556ZM124.444 102.222H128.889V88.8889H124.444V102.222Z" fill="#A0A0A0"/>
<path fill-rule="evenodd" clip-rule="evenodd" d="M71.1111 4.44444V53.3333H75.5556V57.7778H137.778V53.3333H142.222V4.44444H137.778V0H75.5556V4.44444H71.1111ZM75.5556 4.44444L75.5556 44.4445H80V48.8889H133.333V44.4445H137.778L137.778 4.44444H75.5556ZM106.667 13.3333H115.556V17.7778H106.667V13.3333ZM102.222 13.3333H106.667V35.5556H102.222V13.3333ZM111.111 22.2222H106.667V26.6667H111.111V22.2222ZM115.556 31.1111V35.5556H106.667V31.1111H115.556Z" fill="#A0A0A0"/>
<path fill-rule="evenodd" clip-rule="evenodd" d="M293.333 142.222H262.222L155.556 142.222H124.444V146.667H120V195.556H124.444V200H186.667L155.556 200H231.111H262.222H293.333V195.556H297.778V146.667H293.333V142.222ZM262.222 146.667H293.333V186.667L288.889 186.667V191.111H262.222L155.556 191.111H128.889V186.667L124.444 186.667L124.444 146.667H155.556L262.222 146.667Z" fill="#A0A0A0"/>
</svg>
